:SAMPLES-PER-SECOND 30
:FRAME-RANGE 1-564
:FULLY-SPECIFIED
:DEGREES
142
root  31.4993 37.7047 113.801 -177.953 -8.13329 175.216
RightUpLeg  4.44169 1.49001 -6.75228
RightLeg  46.506 10.419 11.2561
RightFoot  -10.3331 -0.153958 9.47973
RightToes  1.21801e-010 1.2921e-014 -6.02303e-014
Spine  -7.10866 2.84976 3.29115
Spine1  10.1657 3.71115 -5.67859
HEad  25.5292 44.4579 2.84042
LeftShoulder1  0.138597 2.82642 -22.9522
LeftArm  -7.31564 17.8665 -49.9606
LeftForeArm  24.4636 -1.48222 -11.2676
LeftHand  -0.0641211 3.97819 3.76027
RightShoulder  2.34994 4.1587 25.4777
RightArm  -17.5654 16.6229 58.5706
RightForeArm  59.0581 -0.623903 7.07482
RightHand  0.141634 -6.53323 -16.0571
LeftUpLeg  -26.3868 -8.61948 -6.98026
LeftLeg  19.2685 16.3704 6.68355
LeftFoot  2.8666 -0.00890625 -0.0679242
LeftToes  1.70735e-010 3.74918e-011 3.68705e-011
143
root  31.2768 37.7559 112.412 -178.032 -10.4776 174.304
RightUpLeg  -1.99256 0.900843 -7.92766
RightLeg  58.7646 7.76731 13.1408
RightFoot  0.965415 -1.32684 12.3244
RightToes  1.21801e-010 1.2921e-014 -6.02303e-014
Spine  -6.9735 3.27356 2.4684
Spine1  10.6447 4.23786 -6.34206
HEad  24.8921 42.8717 1.87115
LeftShoulder1  0.171579 2.71113 -22.8645
LeftArm  -7.35555 16.6888 -49.0517
LeftForeArm  18.9148 -4.77377 -10.9602
LeftHand  -0.0538745 3.94099 2.7907
RightShoulder  2.52746 4.78601 25.23
RightArm  -16.969 17.4547 59.8191
RightForeArm  59.0246 -0.614037 7.24428
RightHand  0.108979 -6.34711 -15.2914
LeftUpLeg  -24.5852 -9.86657 -8.81328
LeftLeg  20.8533 14.9336 6.67901
LeftFoot  1.8834 -0.275585 2.2789
LeftToes  1.70735e-010 3.74918e-011 3.68705e-011
144
root  31.0584 37.857 111.037 -178.379 -13.8189 173.476
RightUpLeg  -7.27478 0.0289684 -8.23088
RightLeg  67.333 4.71815 11.6449
RightFoot  6.7708 -1.87491 12.0164
RightToes  1.21801e-010 1.2921e-014 -6.02303e-014
Spine  -6.21664 3.28353 1.80772
Spine1  10.3214 4.26773 -6.70679
HEad  24.7639 41.1858 1.12344
LeftShoulder1  0.181987 2.68567 -23.3829
LeftArm  -4.67134 14.7006 -47.1844
LeftForeArm  10.4023 -8.99088 -10.4253
LeftHand  -0.0655468 4.01955 3.99443
RightShoulder  2.59908 5.0648 25.0404
RightArm  -16.4399 18.967 61.6932
RightForeArm  59.3233 -0.385487 7.28643
RightHand  0.144848 -6.63502 -15.1741
LeftUpLeg  -21.8975 -11.3976 -10.5746
LeftLeg  21.8526 13.3504 6.3772
LeftFoot  -0.286881 -0.279257 2.90347
LeftToes  1.70735e-010 3.74918e-011 3.68705e-011
145
root  30.895 37.9655 109.702 -178.488 -17.1887 172.835
RightUpLeg  -11.8618 -0.799796 -8.37129
RightLeg  72.8496 2.73662 9.05714
RightFoot  1.7429 -1.03935 9.14863
RightToes  1.21801e-010 1.2921e-014 -6.02303e-014
Spine  -5.6417 3.6184 1.51771
Spine1  10.1509 4.61874 -7.44726
HEad  25.6248 39.0512 1.22808
LeftShoulder1  0.270874 2.37646 -23.1404
LeftArm  -5.19653 12.0613 -46.4669
LeftForeArm  4.41638 -12.0462 -9.1034
LeftHand  -0.0491521 4.76518 5.26634
RightShoulder  2.64959 5.2675 24.8909
RightArm  -15.3824 20.9845 63.1545
RightForeArm  58.2219 0.0905192 7.59833
RightHand  0.156595 -6.69283 -15.5172
LeftUpLeg  -19.1743 -11.4507 -12.0863
LeftLeg  22.3167 10.4653 5.53498
LeftFoot  -2.66125 -0.224479 3.16908
LeftToes  1.70735e-010 3.74918e-011 3.68705e-011
146
root  30.7225 38.1988 108.316 -178.753 -21.2245 172.953
RightUpLeg  -15.8909 -2.11317 -7.7356
RightLeg  74.4113 1.44913 4.88949
RightFoot  -0.765155 -0.525473 5.61546
RightToes  1.21801e-010 1.2921e-014 -6.02303e-014
Spine  -5.23959 3.69111 2.096
Spine1  9.65547 4.73633 -7.82334
HEad  26.5332 36.6895 1.09455
LeftShoulder1  0.395513 1.9121 -22.3095
LeftArm  -4.96216 9.27803 -46.073
LeftForeArm  -4.14828 -14.8764 -7.93614
LeftHand  -3.0258e-005 5.78616 6.92583
RightShoulder  2.74112 5.71105 24.3648
RightArm  -14.3649 23.1964 64.5051
RightForeArm  55.9172 1.05339 7.89955
RightHand  0.11954 -6.4307 -15.2659
LeftUpLeg  -15.7876 -10.6523 -12.6415
LeftLeg  21.6448 6.37669 4.01863
LeftFoot  -4.55998 -0.193233 3.72466
LeftToes  1.70735e-010 3.74918e-011 3.68705e-011
